<svg width="20" height="21" viewBox="0 0 20 21" fill="none" xmlns="http://www.w3.org/2000/svg">
<path d="M10.5 21L9 19.5L10.5 18L12 19.5L10.5 21ZM7.05 19.5L6 18.45L8.95 15.5L10 16.55L7.05 19.5ZM13.5 18L12 16.5L13.5 15L15 16.5L13.5 18ZM4.5 18L3 16.5L4.5 15L6 16.5L4.5 18ZM5.5 14C3.98333 14 2.68733 13.4623 1.612 12.387C0.536667 11.3117 -0.000666047 10.016 6.19579e-07 8.5C6.19579e-07 7.11667 0.458334 5.90833 1.375 4.875C2.29167 3.84167 3.425 3.23333 4.775 3.05C5.30833 2.1 6.03767 1.354 6.963 0.812001C7.88833 0.270001 8.90067 -0.000665438 10 1.2285e-06C11.5 1.2285e-06 12.8043 0.479334 13.913 1.438C15.0217 2.39667 15.6923 3.59233 15.925 5.025C17.075 5.125 18.0417 5.6 18.825 6.45C19.6083 7.3 20 8.31667 20 9.5C20 10.75 19.5627 11.8127 18.688 12.688C17.8133 13.5633 16.7507 14.0007 15.5 14H5.5Z" fill="white"/>
</svg>
